<svg width="100" height="100" viewBox="0 0 100 100" fill="none" xmlns="http://www.w3.org/2000/svg">
  <rect x="2" y="2" width="96" height="96" stroke="currentColor" stroke-width="2" fill="none"/>
  
  <!-- Horizontal lines representing architectural sketches -->
  <line x1="12" y1="15" x2="85" y2="12" stroke="currentColor" stroke-width="1.5"/>
  <line x1="12" y1="20" x2="88" y2="18" stroke="currentColor" stroke-width="1.5"/>
  <line x1="12" y1="25" x2="88" y2="25" stroke="currentColor" stroke-width="1.5"/>
  <line x1="12" y1="30" x2="85" y2="32" stroke="currentColor" stroke-width="1.5"/>
  <line x1="12" y1="35" x2="88" y2="35" stroke="currentColor" stroke-width="1.5"/>
  <line x1="12" y1="40" x2="88" y2="40" stroke="currentColor" stroke-width="1.5"/>
  
  <line x1="12" y1="48" x2="88" y2="48" stroke="currentColor" stroke-width="1.5"/>
  <line x1="12" y1="52" x2="85" y2="54" stroke="currentColor" stroke-width="1.5"/>
  <line x1="12" y1="56" x2="88" y2="56" stroke="currentColor" stroke-width="1.5"/>
  <line x1="12" y1="60" x2="88" y2="60" stroke="currentColor" stroke-width="1.5"/>
  <line x1="12" y1="64" x2="85" y2="66" stroke="currentColor" stroke-width="1.5"/>
  
  <line x1="12" y1="72" x2="88" y2="72" stroke="currentColor" stroke-width="1.5"/>
  <line x1="12" y1="76" x2="85" y2="78" stroke="currentColor" stroke-width="1.5"/>
  <line x1="12" y1="80" x2="88" y2="80" stroke="currentColor" stroke-width="1.5"/>
  <line x1="12" y1="84" x2="85" y2="86" stroke="currentColor" stroke-width="1.5"/>
  <line x1="12" y1="88" x2="88" y2="88" stroke="currentColor" stroke-width="1.5"/>
</svg>